<svg width="130" height="47" viewBox="0 0 130 47" fill="none" xmlns="http://www.w3.org/2000/svg">
<path fill-rule="evenodd" clip-rule="evenodd" d="M0 10.1875C0 4.66465 4.47715 0.1875 10 0.1875H36C41.5228 0.1875 46 4.66465 46 10.1875V36.1875C46 41.7103 41.5228 46.1875 36 46.1875H10C4.47715 46.1875 0 41.7103 0 36.1875V10.1875Z" fill="#169C50"/>
<path fill-rule="evenodd" clip-rule="evenodd" d="M35.8169 27.1182V18.9017C37.0706 18.6342 38.0277 17.6191 38.2216 16.3522C38.4154 15.0852 37.8053 13.8304 36.689 13.2005C35.5727 12.5704 34.1832 12.6967 33.1987 13.5174L26.0422 9.38524C26.0529 9.27686 26.0594 9.16892 26.0594 9.0581C26.0594 7.35481 24.6786 5.974 22.9752 5.974C21.272 5.974 19.8911 7.3548 19.8911 9.0581C19.8916 9.18874 19.901 9.31925 19.919 9.44862L12.8295 13.5422C11.8547 12.7087 10.4659 12.5657 9.34185 13.1829C8.2178 13.8003 7.59325 15.049 7.77352 16.3188C7.954 17.5884 8.90153 18.6138 10.153 18.8937V27.1261C8.90395 27.4048 7.95663 28.4263 7.77277 29.6929C7.58907 30.9594 8.20664 32.208 9.32516 32.8303C10.4434 33.4527 11.8301 33.3195 12.8095 32.4956L20.0653 36.6856L20.118 36.5931C20.432 37.9999 21.0553 39.1201 21.8347 39.6824V40.2431H22.4604V39.9964C22.627 40.0487 22.8006 40.0755 22.9752 40.0761C23.2279 40.0745 23.4773 40.0201 23.7077 39.9167V40.2439H24.3347V39.5062C25.1046 38.725 25.6223 37.7306 25.8207 36.6517L33.1238 32.4351C34.0898 33.2958 35.4906 33.4617 36.631 32.8505C37.7714 32.2394 38.4088 30.9811 38.227 29.7001C38.0452 28.4191 37.0823 27.3879 35.8169 27.1182ZM35.1589 14.0941C36.1682 14.0937 36.9865 14.9114 36.9869 15.9206C36.9873 16.9298 36.1694 17.7482 35.1602 17.7484C34.151 17.7487 33.3328 16.9309 33.3327 15.9216C33.3327 14.9127 34.1501 14.0947 35.1589 14.0941ZM25.6082 10.66L32.3861 14.5727C32.0419 15.2973 31.9964 16.1281 32.2593 16.886L27.6736 19.5744C26.7606 18.1815 25.2764 17.2659 23.622 17.0749V12.0736C24.4492 11.8946 25.1668 11.3836 25.6064 10.6605L25.6082 10.66ZM22.9607 7.26562C23.97 7.26517 24.7885 8.08288 24.7888 9.09213C24.7891 10.1013 23.9712 10.9196 22.962 10.9199C21.953 10.9202 21.1347 10.1023 21.1345 9.09315C21.1345 8.08549 21.9507 7.26774 22.9589 7.266L22.9607 7.26562ZM20.3758 10.71C20.813 11.3986 21.5054 11.8859 22.3014 12.0649V17.0797C20.6401 17.2806 19.1552 18.2121 18.2513 19.6202L13.7142 16.9701C14.0078 16.2028 13.9783 15.3491 13.6325 14.6038L20.3758 10.71ZM8.98706 15.9212C8.98626 14.9118 9.80417 14.0929 10.8137 14.0925C11.8232 14.092 12.6419 14.9101 12.6421 15.9196C12.6421 16.9296 11.8237 17.7478 10.8141 17.7477C9.80503 17.7483 8.98653 16.9311 8.98529 15.922L8.98706 15.9212ZM10.8146 31.9964C9.80496 31.9971 8.9863 31.1789 8.98619 30.1694C8.98619 29.1597 9.80485 28.3415 10.8144 28.342C11.8238 28.3426 12.6416 29.1617 12.6405 30.1712C12.6397 31.1799 11.8217 31.9972 10.8129 31.9972L10.8146 31.9964ZM11.4745 27.1174V18.9017C12.0499 18.7792 12.5782 18.4938 12.996 18.0796L17.6734 20.8102C17.1584 22.2694 17.2749 23.8772 17.995 25.2468L13.1382 28.0933C12.7015 27.5986 12.1177 27.2568 11.4725 27.1182L11.4745 27.1174ZM26.0453 34.9975C26.0534 34.8382 26.0584 34.6788 26.0584 34.5158C26.0584 31.8633 25.0279 29.6476 23.6498 29.0933V24.3997C24.4985 24.0957 25.0053 23.2255 24.8512 22.3376C24.697 21.4495 23.9263 20.8011 23.025 20.8011C22.1238 20.8011 21.3531 21.4495 21.1988 22.3376C21.0446 23.2255 21.5516 24.0957 22.4002 24.3997V29.0554C20.9735 29.5424 19.8938 31.8003 19.8938 34.515C19.8938 34.7023 19.9007 34.8872 19.9098 35.0694L13.6213 31.4373C13.8137 31.0295 13.9138 30.5843 13.9142 30.1334C13.9138 29.8317 13.8693 29.5315 13.7824 29.2427L18.739 26.3379C19.5797 27.3049 20.7256 27.9554 21.9869 28.1815V26.8715C19.8573 26.3728 18.4328 24.3657 18.6649 22.1909C18.8969 20.016 20.7129 18.3547 22.8998 18.3165C25.0866 18.2783 26.9595 19.8753 27.2673 22.0407C27.5752 24.2062 26.2214 26.2618 24.1105 26.8345V28.1607C25.3049 27.9135 26.3862 27.284 27.1906 26.3675L32.2084 29.2974C32.0138 29.9804 32.0623 30.7098 32.3454 31.3612L26.0453 34.9975ZM32.8312 28.1324L27.9431 25.2779C28.6853 23.8846 28.8012 22.2417 28.262 20.758L32.9456 18.0131C33.3652 18.454 33.9061 18.7603 34.4999 18.8933V27.1258C33.8483 27.271 33.2619 27.6245 32.8293 28.1328L32.8312 28.1324ZM35.1595 31.998C34.15 31.9986 33.3313 31.1808 33.331 30.1714C33.3306 29.1622 34.1487 28.3437 35.1581 28.3436C36.1675 28.3436 36.9856 29.162 36.9854 30.1713C36.9845 31.1795 36.1677 31.9973 35.1595 31.998Z" fill="white"/>
<path d="M63.6636 16.4307H52.0695V19.7514H55.9073V29.7898H59.8258V19.7514H63.6636V16.4307Z" fill="white"/>
<path d="M72.4739 19.4842L72.0901 20.2858C71.2014 19.5796 70.05 19.1789 68.7573 19.1789C65.4245 19.1789 63.0411 21.4499 63.0411 24.637C63.0411 27.8432 65.4245 30.1334 68.7573 30.1334C70.0298 30.1334 71.161 29.7517 72.0497 29.0646L72.3729 29.7898H75.2815V19.4842H72.4739ZM69.2623 27.0035C67.8484 27.0035 66.8182 25.992 66.8182 24.637C66.8182 23.3011 67.8484 22.3087 69.2623 22.3087C70.6762 22.3087 71.7063 23.3011 71.7063 24.637C71.7063 25.992 70.6762 27.0035 69.2623 27.0035Z" fill="white"/>
<path d="M77.6727 18.2055H81.3893V15.1902H77.6727V18.2055ZM77.6525 29.7898H81.4095V19.4842H77.6525V29.7898Z" fill="white"/>
<path d="M88.2515 26.6409L92.372 20.0758V19.4842H83.3634V22.6332H87.181L82.9998 29.2746V29.7898H92.4124V26.6409H88.2515Z" fill="white"/>
<path d="M99.4984 30.1334C103.053 30.1334 105.619 27.8241 105.619 24.637C105.619 21.4499 103.053 19.1598 99.4984 19.1598C95.9434 19.1598 93.3984 21.4499 93.3984 24.637C93.3984 27.8241 95.9434 30.1334 99.4984 30.1334ZM99.4984 26.9463C98.1451 26.9463 97.1554 26.0111 97.1554 24.6561C97.1554 23.282 98.1451 22.3469 99.4984 22.3469C100.872 22.3469 101.862 23.3011 101.862 24.6561C101.862 26.0111 100.872 26.9463 99.4984 26.9463Z" fill="white"/>
<path d="M107.218 29.7898H110.873V26.5073H107.218V29.7898Z" fill="white"/>
<path d="M113.119 18.2055H116.836V15.1902H113.119V18.2055ZM113.099 29.7898H116.856V19.4842H113.099V29.7898Z" fill="white"/>
<path d="M125.799 19.1979C124.385 19.1979 123.173 19.6941 122.365 20.5529L121.86 19.4842H119.214V29.7898H122.971V24.2935C122.971 22.9767 123.637 22.2133 124.809 22.2133C125.758 22.2133 126.243 22.8049 126.243 24.0072V29.7898H130V23.511C130 20.8965 128.323 19.1979 125.799 19.1979Z" fill="white"/>
</svg>
