<svg width="28" height="28" viewBox="0 0 28 28" fill="none" xmlns="http://www.w3.org/2000/svg">
<path fill-rule="evenodd" clip-rule="evenodd" d="M22.8487 5.38951C12.4715 -4.68716 -3.80785 7.77847 3.24509 20.4137L1.47794 26.8656L8.08079 25.1343C20.7133 31.8133 32.8068 15.6271 22.8487 5.38951Z" fill="#F1F1F1"/>
<path fill-rule="evenodd" clip-rule="evenodd" d="M14.0386 24.7477C11.9885 24.755 9.99562 24.1394 8.2768 23.0481L4.28188 24.0954L5.34838 20.2017C4.15012 18.4259 3.47431 16.3431 3.48349 14.1875C3.46459 4.85923 14.9382 0.10318 21.5049 6.73141C28.1242 13.3032 23.3695 24.7682 14.0386 24.7477Z" fill="#169C50"/>
<path fill-rule="evenodd" clip-rule="evenodd" d="M19.9653 16.5435C19.648 16.3847 18.088 15.6171 17.7972 15.5113C17.5064 15.4054 17.2947 15.3525 17.0833 15.6703C16.8716 15.9878 16.2641 16.7022 16.0789 16.9136C15.8939 17.1256 15.7087 17.1521 15.3915 16.9933C14.7059 17.0848 11.1892 14.1108 11.0747 13.2214C10.8898 12.9041 11.055 12.7322 11.214 12.5739C11.4902 12.2707 11.8399 11.8895 12.007 11.4891C12.1129 11.2771 12.0599 11.0919 11.9806 10.9331C11.9012 10.7744 11.2845 9.20515 11.0023 8.57794C10.7647 8.04955 10.5145 8.03902 10.2885 8.02957C9.75305 8.03794 9.3386 7.89889 8.83424 8.41918C6.94316 10.2392 7.8104 12.797 9.01919 14.347C9.17768 14.5587 11.2143 17.8646 14.4394 19.1363C17.1197 20.1933 17.6651 19.983 18.247 19.9301C18.8288 19.8772 20.1243 19.1627 20.3886 18.4219C20.653 17.681 20.653 17.0459 20.5738 16.9134C20.4942 16.7816 20.2825 16.7022 19.9653 16.5435Z" fill="#F1F1F1"/>
</svg>
